# xmcd
#
# Track frame offsets:
#	183
#	23903
#	75160
#	105520
#	125063
#	161605
#	187068
#
# Disc length: 3021 seconds
#
# Revision: 3
# Processed by: cddbd v1.5PL3 Copyright (c) Steve Scherf et al.
# Submitted via: MusicWizard 6.0.1
#
DISCID=4f0bcb07
DTITLE=John Lee Hooker - Endless Boogie
DYEAR=1900
DGENRE=Blues
TTITLE0=I (Got) A Good 'Un
TTITLE1=Pots On, Gas On High
TTITLE2=Kick Hit 4 Hit Kix U (Blues For Jimmi And Janis)
TTITLE3=I Don't Need No Steam Heat
TTITLE4=We Might As Well Call It Through (I Didn't Get Married To Your Two-Timing Mother)
TTITLE5=Sittin In My Dark Room
TTITLE6=Endless Boogie
EXTD=
EXTT0=
EXTT1=
EXTT2=
EXTT3=
EXTT4=
EXTT5=
EXTT6=
PLAYORDER=
